<svg xmlns="http://www.w3.org/2000/svg" width="80" height="19.849" viewBox="0 0 80 19.849"><path d="M76.8,19.124c-.815-2.661-1.656-5.254-2.5-7.776h-.048c-.818,2.311-1.658,4.577-2.474,6.771-.958-.185-1.917-.349-2.873-.513,1.12-2.778,2.265-5.651,3.386-8.64C71.22,5.956,70.123,3.036,69.024.233h3.2q1.154,3.329,2.312,6.8h.046c.771-2.2,1.54-4.462,2.335-6.8h2.85c-1.076,3.152-2.15,6.212-3.2,9.155,1.145,3.339,2.289,6.84,3.434,10.461C78.926,19.59,77.85,19.357,76.8,19.124ZM3.829,12.773l.023-.023C2.591,8.757,1.307,4.6,0,.233H3.222C3.993,3.106,4.764,5.884,5.51,8.616h.046C6.328,5.743,7.122,2.965,7.917.233h2.942C9.549,4.11,8.219,8.149,6.912,12.353c0,2.009,0,4.016-.023,6-1.028.188-2.032.4-3.06.633ZM13.03.164h4.506c1,5.464,2.032,10.81,3.037,16.041l.023.023c-1.028.118-2.078.235-3.106.374-.164-.981-.349-1.938-.513-2.919-1.261.141-2.522.281-3.783.443-.187,1.051-.374,2.1-.561,3.177-.933.139-1.868.3-2.824.467Q11.419,8.7,13.03.164Zm.584,11.6v.023c.979-.093,1.984-.21,2.965-.3-.467-2.755-.935-5.51-1.4-8.337h-.046C14.618,6,14.127,8.873,13.614,11.769Zm50.648,5.067Q64.192,8.513,64.167.187H67.25c.023,5.7.069,11.418.092,17.117C66.317,17.14,65.289,16.976,64.261,16.835Zm-9.528-1.05c-.023-5.206-.046-10.39-.092-15.6h3.106c.023,4.531.046,9.083.092,13.614,1.7.139,3.386.326,5.067.513v2.36C60.2,16.3,57.465,16.018,54.733,15.785ZM22.113.164H25.99C27.018,3.27,28.02,6.3,29.048,9.341h.046c0-3.06.025-6.118.048-9.177H31.9c0,5.067-.046,10.11-.046,15.177-1.051.046-2.127.118-3.178.187-1.261-3.619-2.5-7.286-3.734-11.021l-.023-.023h-.048c0,3.783-.046,7.541-.069,11.323-.933.095-1.845.164-2.778.259C22.043,10.764,22.089,5.464,22.113.164ZM45.02,15.226Q45.02,7.695,45,.187h8.15V2.406c-1.681,0-3.386-.049-5.067-.049V6.935l.046-.023c1.33.023,2.663.069,3.993.118V9.224q-2-.069-3.993-.141v6.258C47.1,15.295,46.047,15.249,45.02,15.226Zm-11.231-3.6V3.783C33.835,1.378,35.424,0,38.435,0s4.6,1.378,4.6,3.783V5.231H40.117V3.619c0-1.074-.607-1.471-1.589-1.471s-1.587.42-1.61,1.471v8.1c0,1.074.63,1.448,1.61,1.448s1.612-.4,1.612-1.471V8.944h-1.4V6.8h4.3v4.762c0,2.406-1.566,3.736-4.623,3.76h-.155C35.322,15.319,33.789,14.016,33.789,11.628ZM38.715,6.8h0ZM64.167.187V.164c0,.008,0,.015,0,.023Z" fill="#e10913"/></svg>